{"accessors" : [{"bufferView" : 0, "byteOffset" : 0, "componentType" : 5123, "count" : 570, "type" : "SCALAR", "max" : [164], "min" : [0]}, {"bufferView" : 1, "byteOffset" : 0, "componentType" : 5126, "count" : 165, "type" : "VEC3", "max" : [0.04850621148943901, 0.667911171913147, 0.0721389502286911], "min" : [0.0139482282102108, 0.633436918258667, 0.05376093089580536], "name" : "POSITION"}, {"bufferView" : 1, "byteOffset" : 12, "componentType" : 5126, "count" : 165, "type" : "VEC3", "max" : [0.9745171666145325, 0.9792512059211731, 1.0000042915344238], "min" : [-0.9743995070457458, -0.9773389101028442, 0.1979924887418747], "name" : "NORMAL"}, {"bufferView" : 1, "byteOffset" : 24, "componentType" : 5126, "count" : 165, "type" : "VEC2", "max" : [0.9646214246749878, 0.9818061590194702], "min" : [0.019903719425201416, 0.020990610122680664], "name" : "TEXCOORD_0"}, {"bufferView" : 1, "byteOffset" : 32, "componentType" : 5126, "count" : 165, "type" : "VEC2", "max" : [0.9935725927352905, 0.9611957669258118], "min" : [0.04407842457294464, 0.020823240280151367], "name" : "TEXCOORD_1"}, {"bufferView" : 0, "byteOffset" : 1140, "componentType" : 5123, "count" : 2724, "type" : "SCALAR", "max" : [1015], "min" : [0]}, {"bufferView" : 2, "byteOffset" : 0, "componentType" : 5126, "count" : 1016, "type" : "VEC3", "max" : [0.08249999582767487, 0.6596983075141907, 0.0914609432220459], "min" : [-0.08249999582767487, 0.6217648983001709, -0.04005519673228264], "name" : "POSITION"}, {"bufferView" : 2, "byteOffset" : 12, "componentType" : 5126, "count" : 1016, "type" : "VEC3", "max" : [0.9971569776535034, 1.0000020265579224, 1.0000022649765015], "min" : [-0.9971568584442139, -1.0000020265579224, -1.000002145767212], "name" : "NORMAL"}, {"bufferView" : 2, "byteOffset" : 24, "componentType" : 5126, "count" : 1016, "type" : "VEC2", "max" : [0.981126606464386, 0.9566848874092102], "min" : [0.03151436895132065, 0.06113612651824951], "name" : "TEXCOORD_0"}, {"bufferView" : 0, "byteOffset" : 6588, "componentType" : 5123, "count" : 2385, "type" : "SCALAR", "max" : [430], "min" : [0]}, {"bufferView" : 3, "byteOffset" : 0, "componentType" : 5126, "count" : 431, "type" : "VEC3", "max" : [0.08918754011392593, 0.7695109844207764, 0.08062030375003815], "min" : [-0.09253502637147903, 0.5679596662521362, -0.11813798546791077], "name" : "POSITION"}, {"bufferView" : 3, "byteOffset" : 12, "componentType" : 5126, "count" : 431, "type" : "VEC3", "max" : [0.9999800324440002, 0.9997332692146301, 0.9962137341499329], "min" : [-0.9960635304450989, -0.9999964237213135, -0.999968409538269], "name" : "NORMAL"}, {"bufferView" : 3, "byteOffset" : 24, "componentType" : 5126, "count" : 431, "type" : "VEC2", "max" : [0.9980468153953552, 0.998046875], "min" : [0.0019531229045242071, 0.054793477058410645], "name" : "TEXCOORD_0"}, {"bufferView" : 0, "byteOffset" : 11360, "componentType" : 5123, "count" : 10344, "type" : "SCALAR", "max" : [2055], "min" : [0]}, {"bufferView" : 4, "byteOffset" : 0, "componentType" : 5126, "count" : 2056, "type" : "VEC3", "max" : [0.8336747288703918, 0.3603891432285309, 0.09627869725227356], "min" : [-0.8336747288703918, 0.31057631969451904, -0.04603327065706253], "name" : "POSITION"}, {"bufferView" : 4, "byteOffset" : 12, "componentType" : 5126, "count" : 2056, "type" : "VEC3", "max" : [0.9994828701019287, 0.999745786190033, 0.9974438548088074], "min" : [-0.9994829893112183, -0.9997031688690186, -0.9974484443664551], "name" : "NORMAL"}, {"bufferView" : 4, "byteOffset" : 24, "componentType" : 5126, "count" : 2056, "type" : "VEC2", "max" : [0.968315601348877, 0.9907870292663574], "min" : [0.46754491329193115, 0.4208555221557617], "name" : "TEXCOORD_0"}, {"bufferView" : 0, "byteOffset" : 32048, "componentType" : 5123, "count" : 12282, "type" : "SCALAR", "max" : [2161], "min" : [0]}, {"bufferView" : 5, "byteOffset" : 0, "componentType" : 5126, "count" : 2162, "type" : "VEC3", "max" : [0.09544158726930618, 0.75666344165802, 0.10605403035879135], "min" : [-0.09544249624013901, 0.44184237718582153, -0.12177661806344986], "name" : "POSITION"}, {"bufferView" : 5, "byteOffset" : 12, "componentType" : 5126, "count" : 2162, "type" : "VEC3", "max" : [0.9991013407707214, 0.9999119639396667, 0.9998993873596191], "min" : [-0.9990853667259216, -0.9998236298561096, -0.999987006187439], "name" : "NORMAL"}, {"bufferView" : 5, "byteOffset" : 24, "componentType" : 5126, "count" : 2162, "type" : "VEC2", "max" : [0.9943000078201294, 0.9807000160217285], "min" : [0.004999999888241291, 0.004350006580352783], "name" : "TEXCOORD_0"}, {"bufferView" : 0, "byteOffset" : 56612, "componentType" : 5123, "count" : 2730, "type" : "SCALAR", "max" : [585], "min" : [0]}, {"bufferView" : 6, "byteOffset" : 0, "componentType" : 5126, "count" : 586, "type" : "VEC3", "max" : [0.11196647584438324, 0.5416767597198486, 0.047866739332675934], "min" : [-0.1121266782283783, 0.39734455943107605, -0.13614444434642792], "name" : "POSITION"}, {"bufferView" : 6, "byteOffset" : 12, "componentType" : 5126, "count" : 586, "type" : "VEC3", "max" : [0.975114643573761, 0.9872032999992371, 0.9988282322883606], "min" : [-0.9751144647598267, -0.9893828630447388, -0.9981026649475098], "name" : "NORMAL"}, {"bufferView" : 6, "byteOffset" : 24, "componentType" : 5126, "count" : 586, "type" : "VEC2", "max" : [0.9947299957275391, 0.9983999729156494], "min" : [0.0015999999595806003, 0.001600027084350586], "name" : "TEXCOORD_0"}, {"bufferView" : 0, "byteOffset" : 62072, "componentType" : 5123, "count" : 300, "type" : "SCALAR", "max" : [83], "min" : [0]}, {"bufferView" : 7, "byteOffset" : 0, "componentType" : 5126, "count" : 84, "type" : "VEC3", "max" : [0.028114283457398415, 0.6028099060058594, 0.0810309424996376], "min" : [-0.028114283457398415, 0.5662111043930054, 0.013724347576498985], "name" : "POSITION"}, {"bufferView" : 7, "byteOffset" : 12, "componentType" : 5126, "count" : 84, "type" : "VEC3", "max" : [0.9971873760223389, 0.8755905032157898, 0.998245894908905], "min" : [-0.9971873164176941, -0.9877614974975586, -0.7573385834693909], "name" : "NORMAL"}, {"bufferView" : 7, "byteOffset" : 24, "componentType" : 5126, "count" : 84, "type" : "VEC2", "max" : [0.9808249473571777, 0.983213484287262], "min" : [0.051069796085357666, 0.02829587459564209], "name" : "TEXCOORD_0"}], "asset" : {"generator" : "Aspose.3D 21.5", "version" : "2.0"}, "buffers" : [{"uri" : "data:application/octet-stream;base64,", "byteLength" : 1069984}], "bufferViews" : [{"buffer" : 0, "byteOffset" : 0, "byteLength" : 62672, "target" : 34963}, {"buffer" : 0, "byteOffset" : 62676, "byteLength" : 22800, "byteStride" : 40, "target" : 34962}, {"buffer" : 0, "byteOffset" : 85480, "byteLength" : 87168, "byteStride" : 32, "target" : 34962}, {"buffer" : 0, "byteOffset" : 172652, "byteLength" : 76320, "byteStride" : 32, "target" : 34962}, {"buffer" : 0, "byteOffset" : 248976, "byteLength" : 331008, "byteStride" : 32, "target" : 34962}, {"buffer" : 0, "byteOffset" : 579988, "byteLength" : 393024, "byteStride" : 32, "target" : 34962}, {"buffer" : 0, "byteOffset" : 973016, "byteLength" : 87360, "byteStride" : 32, "target" : 34962}, {"buffer" : 0, "byteOffset" : 1060380, "byteLength" : 9600, "byteStride" : 32, "target" : 34962}], "images" : [{"uri" : "data:image/jpeg;base64,"}, {"uri" : "data:image/png;base64,"}, {"uri" : "data:image/png;base64,"}, {"uri" : "data:image/jpeg;base64,"}, {"uri" : "data:image/jpeg;base64,"}, {"uri" : "data:image/png;base64,"}, {"uri" : "data:image/jpeg;base64,"}], "materials" : [{"pbrMetallicRoughness" : {"baseColorFactor" : [1, 1, 1, 1], "baseColorTexture" : {"index" : 0, "texCoord" : 0}, "metallicFactor" : 0, "roughnessFactor" : 1}, "emissiveFactor" : [0, 0, 0], "alphaMode" : "OPAQUE", "doubleSided" : true}, {"pbrMetallicRoughness" : {"baseColorFactor" : [1, 1, 1, 1], "baseColorTexture" : {"index" : 0, "texCoord" : 0}, "metallicFactor" : 0, "roughnessFactor" : 1}, "emissiveFactor" : [0, 0, 0], "alphaMode" : "OPAQUE", "doubleSided" : true}, {"pbrMetallicRoughness" : {"baseColorFactor" : [1, 1, 1, 1], "baseColorTexture" : {"index" : 1, "texCoord" : 0}, "metallicFactor" : 0, "roughnessFactor" : 0.15000000596046448}, "emissiveFactor" : [0, 0, 0], "alphaMode" : "OPAQUE", "doubleSided" : false}, {"pbrMetallicRoughness" : {"baseColorFactor" : [1, 1, 1, 1], "baseColorTexture" : {"index" : 3, "texCoord" : 0}, "metallicFactor" : 0, "roughnessFactor" : 0.5545454621315002}, "normalTexture" : {"index" : 2, "texCoord" : 0, "scale" : 1}, "emissiveFactor" : [0, 0, 0], "alphaMode" : "OPAQUE", "doubleSided" : true}, {"pbrMetallicRoughness" : {"baseColorFactor" : [1, 1, 1, 1], "baseColorTexture" : {"index" : 4, "texCoord" : 0}, "metallicFactor" : 0, "roughnessFactor" : 0.699999988079071}, "emissiveFactor" : [0, 0, 0], "alphaMode" : "OPAQUE", "doubleSided" : true}, {"pbrMetallicRoughness" : {"baseColorFactor" : [1, 1, 1, 1], "baseColorTexture" : {"index" : 4, "texCoord" : 0}, "metallicFactor" : 0, "roughnessFactor" : 0.699999988079071}, "emissiveFactor" : [0, 0, 0], "alphaMode" : "OPAQUE", "doubleSided" : true}, {"pbrMetallicRoughness" : {"baseColorFactor" : [1, 1, 1, 1], "baseColorTexture" : {"index" : 5, "texCoord" : 0}, "metallicFactor" : 0, "roughnessFactor" : 0.7346045970916748}, "emissiveFactor" : [0, 0, 0], "alphaMode" : "OPAQUE", "doubleSided" : true}, {"pbrMetallicRoughness" : {"baseColorFactor" : [1, 1, 1, 1], "baseColorTexture" : {"index" : 6, "texCoord" : 0}, "metallicFactor" : 0, "roughnessFactor" : 1}, "emissiveFactor" : [0, 0, 0], "alphaMode" : "OPAQUE", "doubleSided" : true}], "meshes" : [{"primitives" : [{"attributes" : {"POSITION" : 1, "NORMAL" : 2, "TEXCOORD_0" : 3, "TEXCOORD_1" : 4}, "indices" : 0, "material" : 0, "mode" : 4}]}, {"primitives" : [{"attributes" : {"POSITION" : 1, "NORMAL" : 2, "TEXCOORD_0" : 3, "TEXCOORD_1" : 4}, "indices" : 0, "material" : 1, "mode" : 4}]}, {"primitives" : [{"attributes" : {"POSITION" : 6, "NORMAL" : 7, "TEXCOORD_0" : 8}, "indices" : 5, "material" : 2, "mode" : 4}]}, {"primitives" : [{"attributes" : {"POSITION" : 10, "NORMAL" : 11, "TEXCOORD_0" : 12}, "indices" : 9, "material" : 3, "mode" : 4}]}, {"primitives" : [{"attributes" : {"POSITION" : 14, "NORMAL" : 15, "TEXCOORD_0" : 16}, "indices" : 13, "material" : 4, "mode" : 4}]}, {"primitives" : [{"attributes" : {"POSITION" : 18, "NORMAL" : 19, "TEXCOORD_0" : 20}, "indices" : 17, "material" : 5, "mode" : 4}]}, {"primitives" : [{"attributes" : {"POSITION" : 22, "NORMAL" : 23, "TEXCOORD_0" : 24}, "indices" : 21, "material" : 6, "mode" : 4}]}, {"primitives" : [{"attributes" : {"POSITION" : 26, "NORMAL" : 27, "TEXCOORD_0" : 28}, "indices" : 25, "material" : 7, "mode" : 4}]}], "nodes" : [{"mesh" : 0, "name" : "EyeLeft"}, {"mesh" : 1, "name" : "EyeRight"}, {"mesh" : 2, "name" : "Wolf3D_Glasses"}, {"mesh" : 3, "name" : "Wolf3D_Hair"}, {"mesh" : 4, "name" : "Wolf3D_Hands"}, {"mesh" : 5, "name" : "Wolf3D_Head"}, {"mesh" : 6, "name" : "Wolf3D_Shirt"}, {"mesh" : 7, "name" : "Wolf3D_Teeth"}, {"children" : [0, 1, 2, 3, 4, 5, 6, 7], "name" : "AvatarRoot"}], "samplers" : [{"magFilter" : 9729, "minFilter" : 9986, "wrapS" : 10497, "wrapT" : 10497}, {"magFilter" : 9729, "minFilter" : 9986, "wrapS" : 10497, "wrapT" : 10497}, {"magFilter" : 9729, "minFilter" : 9986, "wrapS" : 10497, "wrapT" : 10497}, {"magFilter" : 9729, "minFilter" : 9986, "wrapS" : 10497, "wrapT" : 10497}, {"magFilter" : 9729, "minFilter" : 9986, "wrapS" : 10497, "wrapT" : 10497}, {"magFilter" : 9729, "minFilter" : 9986, "wrapS" : 10497, "wrapT" : 10497}, {"magFilter" : 9729, "minFilter" : 9986, "wrapS" : 10497, "wrapT" : 10497}], "scene" : 0, "scenes" : [{"nodes" : [8]}], "textures" : [{"sampler" : 0, "source" : 0}, {"sampler" : 1, "source" : 1}, {"sampler" : 2, "source" : 2}, {"sampler" : 3, "source" : 3}, {"sampler" : 4, "source" : 4}, {"sampler" : 5, "source" : 5}, {"sampler" : 6, "source" : 6}]}